<svg id="Layer_1" data-name="Layer 1" xmlns="http://www.w3.org/2000/svg" viewBox="0 0 378.5 100"><defs><style>.cls-1{fill:#fff;}</style></defs><title>logotype</title><polygon class="cls-1" points="61.66 14.08 61.66 1.01 13.75 1.01 6.74 1.01 0 1.01 0 98.99 13.75 98.99 13.75 57.75 54.24 57.75 54.24 44.68 13.75 44.68 13.75 14.08 61.66 14.08"/><path class="cls-1" d="M155.86,99h16.31L149.55,56.06a27,27,0,0,0,4.93-2,24.75,24.75,0,0,0,10-9.94,30.1,30.1,0,0,0,3.57-14.85,30.32,30.32,0,0,0-3.54-14.86,24.53,24.53,0,0,0-10-9.94A30.7,30.7,0,0,0,139.62.94H100.74V99h13.75V57.55H135ZM114.49,14h25.67a12.9,12.9,0,0,1,7,1.88,12.52,12.52,0,0,1,4.65,5.36,18.4,18.4,0,0,1,1.65,8,18.35,18.35,0,0,1-1.65,8,12.47,12.47,0,0,1-4.69,5.36,12.82,12.82,0,0,1-6.94,1.88H114.49Z"/><path class="cls-1" d="M236.66,100l-6.34-1.35a50.55,50.55,0,0,1-11.82-4,50,50,0,0,1-10.28-6.74l8.56-10.51a38.88,38.88,0,0,0,12.33,7.28,43,43,0,0,0,14.62,2.42q10.65,0,16.51-3.94A12.68,12.68,0,0,0,266.11,72V71.9a11.78,11.78,0,0,0-2.67-8.12,15.87,15.87,0,0,0-6.87-4.45,77.74,77.74,0,0,0-10.88-2.66,1.56,1.56,0,0,0-.44-.07,1.56,1.56,0,0,1-.44-.06l-1-.21a105.25,105.25,0,0,1-16-3.8,22.59,22.59,0,0,1-10.55-7.75q-4.38-5.62-4.38-16v-.06A28.43,28.43,0,0,1,217,13.17a25.63,25.63,0,0,1,11.89-9.8Q236.66,0,247.64,0A46.64,46.64,0,0,1,258,1.15a51,51,0,0,1,10,3.4,57.54,57.54,0,0,1,9.73,5.69L270,21.16A45.73,45.73,0,0,0,258.79,15a31.92,31.92,0,0,0-11.15-2.05q-10,0-15.6,4a13.19,13.19,0,0,0-5.56,11.35v.07a10.81,10.81,0,0,0,2.87,8,17.36,17.36,0,0,0,7.14,4.28,106.34,106.34,0,0,0,11.89,2.86,3.52,3.52,0,0,0,.51.1c.16,0,.32.06.5.11l.74.13.75.14a81,81,0,0,1,14.85,4.31,23.17,23.17,0,0,1,10,8q4,5.56,4,15.2v.13A27,27,0,0,1,275.47,87a26.39,26.39,0,0,1-12.3,9.7q-8,3.34-19.44,3.34Z"/><polygon class="cls-1" points="378.5 1.01 309.37 1.01 309.37 14.08 337.06 14.08 337.06 98.99 350.81 98.99 350.81 14.08 378.5 14.08 378.5 1.01"/></svg>