<svg id="Layer_1" data-name="Layer 1" xmlns="http://www.w3.org/2000/svg" viewBox="0 0 96.51 100"><defs><style>.cls-1{fill:#fff;}.cls-2{fill:#53cae5;}</style></defs><title>thundr</title><path class="cls-1" d="M85.68,56.19,81.91,53.6,76,61.74c-2.57-.72-5.85-.63-9.83.1-11.19,2-15.11,1-17.26-.76a49.43,49.43,0,0,0,6.74-.42C62.23,59.91,68,55.93,69.75,50.3a25.67,25.67,0,0,0-.46-16.47,81.51,81.51,0,0,0,7.53,6.36c2.19,1.62,2.39,1.51,3-.8a28.2,28.2,0,0,0,.71-5.18c.14-3,.71-7.7-.9-10.18C77.87,21.36,73,21.94,70,22s-5.2.27-6.21,2.43a32.86,32.86,0,0,0-6.16-5.72C46.68,10.83,20.7,0,20.7,0s13,14.83,13,14.83a21.74,21.74,0,0,0-17,10.67c-1.07-1.87-3.29-2.09-6-2.12-2.93,0-7.85-.61-9.59,2.07C-.5,27.92.07,32.59.22,35.63a27.48,27.48,0,0,0,.71,5.18c.59,2.3.78,2.41,3,.8a86.09,86.09,0,0,0,9.54-8.33,32.67,32.67,0,0,0-.3,14.9c1.19,5.77,6.07,10.75,15,12.48A28.57,28.57,0,0,0,35.8,61c-1.2,5.35-.43,12.73,5.62,17.32l.51.37c.3,3,.3,6.1.38,8.45-2.17-.63-6.32-.83-8.34,2a5.15,5.15,0,0,0,2,7.5,9.52,9.52,0,0,0,5.56.56A6.31,6.31,0,0,1,41.81,91c1.86-2.59,5.43-2.84,7.73-2.53.05-1.42,0-2.87,0-4.32a12.28,12.28,0,0,1-6.28-4.55,27,27,0,0,0,7.62,3.17c.23,3,.25,5.82.26,6.93-2.23-.43-6.32-.83-8.34,2a5.27,5.27,0,0,0,1.94,7.49c2.69,1.24,7,1,9.43.12,3.78-1.36,3.78-4.51,3.93-8.32.09-2.42,0-4.82-.06-7.22.85,0,1.69,0,2.49,0a39.13,39.13,0,0,0,6.39-.82,24.46,24.46,0,0,1,0,6.45c-3.22-1.49-9.62-.4-8.73,4.58.61,3.47,5.23,3.61,8.24,3.13a4.94,4.94,0,0,1-.57-2.19c-.23-5.06,5.25-6.71,8.78-5.29a22.15,22.15,0,0,0,.1-9.06l.9-.4A23.71,23.71,0,0,1,75.72,91C72.84,89.26,66,90.29,67,95.59c.67,3.46,5.89,3.87,8.8,3.44,4.79-.7,6.12-3.29,6.9-7.07.66-3.24,1.59-15-.53-23.15a14.13,14.13,0,0,0-.7-2.22L84,62.54l3.06,2.59,9.42-21.66Z"/><path class="cls-2" d="M37.77,41.12c0-1,1.27-1.77,2.83-1.77s2.82.79,2.82,1.77-1.26,1.76-2.82,1.76S37.77,42.09,37.77,41.12Zm8.89,4.66L46.18,45c-5.33,3.11-10.53,0-10.58,0l-.49.8A12.17,12.17,0,0,0,41,47.32,11.08,11.08,0,0,0,46.66,45.78ZM16,40.26h8.29V38.14H16Zm49.49-2.59H57.19v2.12h8.32Zm31,5.8L87.09,65.13,84,62.54l-2.57,4.05a14.13,14.13,0,0,1,.7,2.22C84.28,77,83.35,88.72,82.69,92c-.78,3.78-2.11,6.37-6.9,7.07-2.91.43-8.13,0-8.8-3.44-1-5.3,5.85-6.33,8.73-4.58a23.71,23.71,0,0,0-.15-10.88l-.9.4a22.15,22.15,0,0,1-.1,9.06c-3.53-1.42-9,.23-8.78,5.29a4.94,4.94,0,0,0,.57,2.19c-3,.48-7.63.34-8.24-3.13-.89-5,5.51-6.07,8.73-4.58a24.46,24.46,0,0,0,0-6.45,39.13,39.13,0,0,1-6.39.82c-.8,0-1.64,0-2.49,0,.09,2.4.15,4.8.06,7.22-.15,3.81-.15,7-3.93,8.32-2.42.87-6.74,1.12-9.43-.12a5.27,5.27,0,0,1-1.94-7.49c2-2.84,6.11-2.44,8.34-2,0-1.11,0-3.94-.26-6.93a27,27,0,0,1-7.62-3.17A12.28,12.28,0,0,0,49.5,84.1c.06,1.45.09,2.9,0,4.32-2.3-.31-5.87-.06-7.73,2.53a6.31,6.31,0,0,0-.33,6.25,9.52,9.52,0,0,1-5.56-.56,5.15,5.15,0,0,1-2-7.5c2-2.83,6.17-2.63,8.34-2-.08-2.35-.08-5.45-.38-8.45l-.51-.37c-6.05-4.59-6.82-12-5.62-17.32a28.57,28.57,0,0,1-7.64-.34c-8.95-1.73-13.83-6.71-15-12.48a32.67,32.67,0,0,1,.3-14.9A86.09,86.09,0,0,1,3.9,41.61c-2.19,1.61-2.38,1.5-3-.8a27.48,27.48,0,0,1-.71-5.18c-.15-3-.72-7.71.89-10.18,1.74-2.68,6.66-2.1,9.59-2.07,2.75,0,5,.25,6,2.12a21.74,21.74,0,0,1,17-10.67S20.62,0,20.7,0s26,10.83,37,18.68a32.86,32.86,0,0,1,6.16,5.72c1-2.16,3.31-2.4,6.21-2.43s7.84-.61,9.58,2.06c1.61,2.48,1,7.15.9,10.18a28.2,28.2,0,0,1-.71,5.18c-.59,2.31-.79,2.42-3,.8a81.51,81.51,0,0,1-7.53-6.36,25.67,25.67,0,0,1,.46,16.47C68,55.93,62.23,59.91,55.62,60.66a49.43,49.43,0,0,1-6.74.42c2.15,1.8,6.07,2.79,17.26.76,4-.73,7.26-.82,9.83-.1l5.94-8.14,3.77,2.59ZM26.05,39.93a5.82,5.82,0,1,0-5.82,5.82A5.82,5.82,0,0,0,26.05,39.93Zm29.57-.31a5.82,5.82,0,1,0,5.81-5.82A5.81,5.81,0,0,0,55.62,39.62ZM45.54,58.3s4.59.12,6-2.82c1-2,.54-5.44-.15-7.3-1.78-4.72-5.79-10.41-10.32-10.83s-9,5.72-10.25,9.24c-1.12,3.16-1.69,8.94,1.89,10.54S41.44,58.3,45.54,58.3Z"/></svg>